<?xml version="1.0" standalone="no"?>
<!DOCTYPE svg PUBLIC "-//W3C//DTD SVG 20010904//EN"
 "http://www.w3.org/TR/2001/REC-SVG-20010904/DTD/svg10.dtd">
<svg version="1.0" xmlns="http://www.w3.org/2000/svg"
 width="200.000000pt" height="40.000000pt" viewBox="0 0 200.000000 40.000000"
 preserveAspectRatio="xMidYMid meet">

<g transform="translate(0.000000,40.000000) scale(0.100000,-0.100000)"
fill="#000000" stroke="none">
<path d="M1420 374 c-30 -15 -67 -33 -82 -40 -14 -8 -35 -14 -47 -14 -32 0
-42 -33 -39 -123 l3 -82 40 0 c33 0 40 -3 40 -20 0 -18 -8 -20 -62 -23 l-63
-3 0 117 0 116 -25 -6 c-70 -18 -72 -20 -79 -96 -4 -40 -5 -75 -1 -78 3 -4 20
-7 38 -8 47 -3 47 -2 47 -24 0 -18 -7 -20 -66 -20 l-66 0 6 35 c4 19 4 57 0
85 -5 41 -10 50 -26 50 -16 0 -19 -5 -15 -21 9 -34 -3 -49 -39 -49 -31 0 -34
-3 -34 -30 0 -29 2 -30 45 -30 38 0 45 -3 45 -20 0 -16 -7 -20 -33 -20 -31 0
-33 -2 -29 -29 2 -16 11 -31 21 -34 9 -2 194 -5 411 -6 390 -2 395 -2 418 19
12 12 20 25 17 30 -3 5 0 12 6 16 8 5 9 3 4 -6 -6 -10 -4 -12 9 -7 10 4 20 7
22 7 2 0 4 5 4 11 0 5 -6 7 -12 3 -7 -5 -2 5 11 21 l23 30 -76 9 c-80 10 -83
12 -77 70 0 10 -4 26 -11 34 -10 13 -10 14 0 8 6 -4 12 -3 12 2 0 6 17 13 38
18 22 4 30 9 20 11 -10 3 -18 11 -18 19 0 17 -48 68 -73 77 -10 4 -15 11 -12
17 4 6 -37 10 -117 10 -113 0 -129 -2 -178 -26z m72 -174 c33 -125 34 -130 9
-130 -13 0 -21 9 -26 30 -6 26 -11 30 -40 30 -29 0 -34 -4 -40 -30 -5 -21 -13
-30 -26 -30 -24 0 -24 3 1 98 38 140 39 143 68 140 23 -3 28 -11 54 -108z
m168 100 c27 -15 34 -63 15 -103 -15 -32 -14 -37 4 -80 l20 -47 -24 0 c-19 0
-27 9 -41 45 -22 60 -44 60 -44 -1 0 -41 -2 -45 -22 -42 -22 3 -23 7 -26 121
l-3 117 51 0 c28 0 60 -4 70 -10z m70 -107 c-11 -17 -11 -17 -6 0 3 10 6 24 7
30 0 9 2 9 5 0 3 -7 0 -20 -6 -30z"/>
<path d="M1427 220 c-10 -38 -8 -50 8 -50 16 0 17 10 6 50 l-7 25 -7 -25z"/>
<path d="M1590 240 c0 -25 4 -30 25 -30 20 0 25 5 25 24 0 22 -16 36 -41 36
-5 0 -9 -13 -9 -30z"/>
<path d="M950 245 c0 -16 6 -25 15 -25 9 0 15 9 15 25 0 16 -6 25 -15 25 -9 0
-15 -9 -15 -25z"/>
<path d="M879 222 c10 -8 6 -11 -18 -17 -28 -6 -31 -10 -31 -47 0 -22 3 -38 8
-36 63 31 63 31 60 67 -2 20 -9 36 -18 38 -12 4 -13 3 -1 -5z"/>
<path d="M723 144 c2 -40 -2 -49 -28 -70 l-29 -23 43 15 c77 26 81 30 81 79 0
45 0 45 -34 45 l-34 0 1 -46z"/>
<path d="M576 165 c-51 -18 -63 -30 -46 -50 14 -17 50 -20 50 -4 0 5 -4 8 -8
5 -5 -3 -9 1 -9 9 0 8 3 13 5 10 3 -3 11 0 19 7 10 8 19 6 38 -12 27 -25 55
-21 55 9 0 12 -11 23 -31 30 -18 6 -32 11 -33 11 -1 -1 -18 -7 -40 -15z"/>
<path d="M91 153 c-6 -10 -11 -14 -11 -9 0 5 -6 4 -12 -2 -13 -10 -19 -12 -38
-12 -18 0 -11 -18 20 -54 38 -42 96 -72 114 -57 9 7 16 7 24 -1 8 -8 12 -8 12
-1 0 5 11 9 25 8 14 -2 23 0 20 5 -3 5 1 11 7 13 7 3 3 6 -10 6 -15 1 -21 -3
-16 -11 5 -8 2 -9 -10 -5 -10 4 -21 7 -25 7 -6 0 -12 30 -15 77 -1 15 -9 23
-30 27 -15 3 -33 3 -39 -1 -6 -4 -8 0 -4 10 8 22 1 22 -12 0z"/>
<path d="M430 151 c0 -5 -7 -17 -16 -25 -17 -17 -8 -21 15 -7 17 11 24 41 10
41 -5 0 -9 -4 -9 -9z"/>
<path d="M258 132 c13 -8 22 -25 23 -41 l1 -26 10 30 c6 17 18 35 26 41 11 8
3 11 -34 11 -45 0 -47 -1 -26 -15z"/>
<path d="M887 94 c-6 -10 9 -42 16 -34 3 3 1 14 -3 24 -3 11 -9 15 -13 10z"/>
<path d="M920 55 c0 -9 9 -15 23 -14 20 1 20 2 2 7 l-20 5 20 8 c19 7 19 8 -2
8 -14 1 -23 -5 -23 -14z"/>
<path d="M275 50 c-3 -5 -1 -10 4 -10 6 0 11 5 11 10 0 6 -2 10 -4 10 -3 0 -8
-4 -11 -10z"/>
</g>
</svg>
